<?xml version="1.0" encoding="UTF-8"?>
<svg width="40px" height="40px" viewBox="0 0 40 40" version="1.1" xmlns="http://www.w3.org/2000/svg" xmlns:xlink="http://www.w3.org/1999/xlink">
    <title>download-white</title>
    <defs>
        <path d="M16.875,0 L23.125,0 C24.1640625,0 25,0.8359375 25,1.875 L25,15 L31.8515625,15 C33.2421875,15 33.9375,16.6796875 32.953125,17.6640625 L21.0703125,29.5546875 C20.484375,30.140625 19.5234375,30.140625 18.9375,29.5546875 L7.0390625,17.6640625 C6.0546875,16.6796875 6.75,15 8.140625,15 L15,15 L15,1.875 C15,0.8359375 15.8359375,0 16.875,0 Z M40,29.375 L40,38.125 C40,39.1640625 39.1640625,40 38.125,40 L1.875,40 C0.8359375,40 0,39.1640625 0,38.125 L0,29.375 C0,28.3359375 0.8359375,27.5 1.875,27.5 L13.3359375,27.5 L17.1640625,31.328125 C18.734375,32.8984375 21.265625,32.8984375 22.8359375,31.328125 L26.6640625,27.5 L38.125,27.5 C39.1640625,27.5 40,28.3359375 40,29.375 Z M30.3125,36.25 C30.3125,35.390625 29.609375,34.6875 28.75,34.6875 C27.890625,34.6875 27.1875,35.390625 27.1875,36.25 C27.1875,37.109375 27.890625,37.8125 28.75,37.8125 C29.609375,37.8125 30.3125,37.109375 30.3125,36.25 Z M35.3125,36.25 C35.3125,35.390625 34.609375,34.6875 33.75,34.6875 C32.890625,34.6875 32.1875,35.390625 32.1875,36.25 C32.1875,37.109375 32.890625,37.8125 33.75,37.8125 C34.609375,37.8125 35.3125,37.109375 35.3125,36.25 Z" id="path-1"></path>
    </defs>
    <g id="download-white" stroke="none" stroke-width="1" fill="none" fill-rule="evenodd">
        <g id="Solid/download">
            <mask id="mask-2" fill="white">
                <use xlink:href="#path-1"></use>
            </mask>
            <use id="Mask" fill="#000000" fill-rule="nonzero" xlink:href="#path-1"></use>
            <g id="Group" mask="url(#mask-2)" fill="#FFFFFF">
                <g id="Color">
                    <rect id="White" x="0" y="0" width="40" height="40"></rect>
                </g>
            </g>
        </g>
    </g>
</svg>