<?xml version="1.0" encoding="UTF-8"?><svg version="1.1" width="40px" height="40px" viewBox="0 0 40.0 40.0" xmlns="http://www.w3.org/2000/svg" xmlns:xlink="http://www.w3.org/1999/xlink"><defs><clipPath id="i0"><path d="M40,0 L40,40 L0,40 L0,0 L40,0 Z"></path></clipPath><clipPath id="i1"><path d="M14.9999537,0 C16.2308912,0 17.12886,1.1684375 16.8116725,2.358125 L14.1071412,12.5 L23.1228444,12.5 C24.5667506,12.5 25.4676881,14.0670312 24.7455006,15.3144531 L10.99761,39.0642188 C10.6537037,39.6582813 10.0266725,40 9.37432873,40 C8.1764381,40 7.26948498,38.8788281 7.55042248,37.6926562 L11.1487819,22.5 L1.87526623,22.5 C0.742453726,22.5 -0.133171274,21.5013281 0.0167506014,20.3771875 L2.5164381,1.6271875 C2.64057873,0.695703125 3.4351881,0 4.37495373,0 Z"></path></clipPath></defs><g clip-path="url(#i0)"><g transform="translate(7.5 0.0)"><g clip-path="url(#i1)"><polygon points="-6.9388939e-18,0 24.9999472,0 24.9999472,40 -6.9388939e-18,40 -6.9388939e-18,0" stroke="none" fill="#000000"></polygon><g transform="translate(-7.5 0.0)"><g clip-path="url(#i0)"><polygon points="7.5,0 32.4999472,0 32.4999472,40 7.5,40 7.5,0" stroke="none" fill="#414141"></polygon></g></g></g></g></g></svg>