<?xml version="1.0" encoding="UTF-8"?>
<svg width="40px" height="40px" viewBox="0 0 40 40" version="1.1" xmlns="http://www.w3.org/2000/svg" xmlns:xlink="http://www.w3.org/1999/xlink">
    <title>history-white</title>
    <defs>
        <path d="M39.3750336,19.9633594 C39.3947656,30.6383594 30.6890625,39.3674219 20.0140625,39.3749269 C15.4035156,39.3782031 11.1685156,37.7710156 7.84046875,35.085 C6.97507813,34.3865625 6.91039063,33.0896094 7.69679688,32.3032031 L8.57703125,31.4229687 C9.24960938,30.7503906 10.3233594,30.6767969 11.0685156,31.2679687 C13.5204688,33.2136719 16.6235156,34.375 20,34.375 C27.9457031,34.375 34.375,27.9444531 34.375,20 C34.375,12.0542969 27.9444531,5.625 20,5.625 C16.1864063,5.625 12.7227344,7.10695312 10.1509375,9.5259375 L14.1160938,13.4910937 C14.9035938,14.2785937 14.3458594,15.625 13.2322656,15.625 L1.875,15.625 C1.18460938,15.625 0.625,15.0653906 0.625,14.375 L0.625,3.01773437 C0.625,1.90414063 1.97140625,1.34640625 2.75890625,2.13382812 L6.61609375,5.99101562 C10.0944531,2.666875 14.80875,0.625 20,0.625 C30.6882813,0.625 39.3552344,9.2796875 39.3750336,19.9633594 Z M25.24125,26.1183594 L26.0086719,25.1316406 C26.6444531,24.3142187 26.4971875,23.1361719 25.6797656,22.5004687 L22.5,20.0272656 L22.5,11.875 C22.5,10.8394531 21.6605469,10 20.625,10 L19.375,10 C18.3394531,10 17.5,10.8394531 17.5,11.875 L17.5,22.4727344 L22.6100781,26.4472656 C23.4275,27.0829687 24.6054688,26.9357812 25.24125,26.1183594 L25.24125,26.1183594 Z" id="path-1"></path>
    </defs>
    <g id="history-white" stroke="none" stroke-width="1" fill="none" fill-rule="evenodd">
        <g id="Solid/history">
            <mask id="mask-2" fill="white">
                <use xlink:href="#path-1"></use>
            </mask>
            <use id="Mask" fill="#000000" fill-rule="nonzero" xlink:href="#path-1"></use>
            <g id="Group" mask="url(#mask-2)" fill="#FFFFFF">
                <g id="Color">
                    <rect id="White" x="0" y="0" width="40" height="40"></rect>
                </g>
            </g>
        </g>
    </g>
</svg>