<?xml version="1.0" encoding="UTF-8"?>
<svg width="40px" height="40px" viewBox="0 0 40 40" version="1.1" xmlns="http://www.w3.org/2000/svg" xmlns:xlink="http://www.w3.org/1999/xlink">
    <title>plus</title>
    <defs>
        <path d="M37.5,22.984375 L37.5,17.015625 C37.5,15.9765625 36.6640625,15.140625 35.625,15.140625 L24.859375,15.140625 L24.859375,4.375 C24.859375,3.3359375 24.0234375,2.5 22.984375,2.5 L17.015625,2.5 C15.9765625,2.5 15.140625,3.3359375 15.140625,4.375 L15.140625,15.140625 L4.375,15.140625 C3.3359375,15.140625 2.5,15.9765625 2.5,17.015625 L2.5,22.984375 C2.5,24.0234375 3.3359375,24.859375 4.375,24.859375 L15.140625,24.859375 L15.140625,35.625 C15.140625,36.6640625 15.9765625,37.5 17.015625,37.5 L22.984375,37.5 C24.0234375,37.5 24.859375,36.6640625 24.859375,35.625 L24.859375,24.859375 L35.625,24.859375 C36.6640625,24.859375 37.5,24.0234375 37.5,22.984375 Z" id="path-1"></path>
    </defs>
    <g id="plus" stroke="none" stroke-width="1" fill="none" fill-rule="evenodd">
        <g id="Solid/plus">
            <mask id="mask-2" fill="white">
                <use xlink:href="#path-1"></use>
            </mask>
            <use id="Mask" fill="#000000" fill-rule="nonzero" xlink:href="#path-1"></use>
            <g id="Group" mask="url(#mask-2)" fill="#424242">
                <g id="Color">
                    <rect id="Gray" x="0" y="0" width="40" height="40"></rect>
                </g>
            </g>
        </g>
    </g>
</svg>