<?xml version="1.0" encoding="UTF-8"?>
<svg width="40px" height="40px" viewBox="0 0 40 40" version="1.1" xmlns="http://www.w3.org/2000/svg" xmlns:xlink="http://www.w3.org/1999/xlink">
    <title>remove</title>
    <defs>
        <path d="M30.2460938,34.4570312 L34.4570312,30.2460938 C35.1914062,29.5117188 35.1914062,28.3320313 34.4570312,27.5976563 L26.8632812,20.0039062 L34.4570312,12.4101562 C35.1914062,11.6757812 35.1914062,10.4960938 34.4570312,9.76171875 L30.2460938,5.55078125 C29.5117188,4.81640625 28.3320313,4.81640625 27.5976563,5.55078125 L20.0039062,13.1445312 L12.4101562,5.55078125 C11.6757812,4.81640625 10.4960938,4.81640625 9.76171875,5.55078125 L5.55078125,9.76171875 C4.81640625,10.4960938 4.81640625,11.6757812 5.55078125,12.4101562 L13.1445312,20.0039062 L5.55078125,27.5976562 C4.81640625,28.3320312 4.81640625,29.5117187 5.55078125,30.2460937 L9.76171875,34.4570312 C10.4960938,35.1914062 11.6757812,35.1914062 12.4101562,34.4570312 L20.0039062,26.8632812 L27.5976562,34.4570312 C28.3242188,35.1835938 29.5117187,35.1835938 30.2460938,34.4570312 Z" id="path-1"></path>
    </defs>
    <g id="remove" stroke="none" stroke-width="1" fill="none" fill-rule="evenodd">
        <g id="Solid/times">
            <mask id="mask-2" fill="white">
                <use xlink:href="#path-1"></use>
            </mask>
            <use id="Mask" fill="#000000" fill-rule="nonzero" xlink:href="#path-1"></use>
            <g id="Group" mask="url(#mask-2)" fill="#424242">
                <g id="Color">
                    <rect id="Gray" x="0" y="0" width="40" height="40"></rect>
                </g>
            </g>
        </g>
    </g>
</svg>