<?xml version="1.0" encoding="UTF-8"?>
<svg width="40px" height="40px" viewBox="0 0 40 40" version="1.1" xmlns="http://www.w3.org/2000/svg" xmlns:xlink="http://www.w3.org/1999/xlink">
    <title>restart-white</title>
    <defs>
        <path d="M19.9644531,0.625 C14.7871875,0.634328376 10.0864844,2.67448463 6.61601562,5.99104713 L3.82585937,3.20089088 C2.64460937,2.01964088 0.625,2.85620338 0.625,4.52667213 L0.625,15.0000315 C0.625,16.0355784 1.46445312,16.8750315 2.5,16.8750315 L12.9733594,16.8750315 C14.6438281,16.8750315 15.4803906,14.8554221 14.2992188,13.6741721 L11.0375,10.4124534 C13.44875,8.154719 16.5688281,6.904094 19.8835937,6.87550025 C27.1021875,6.8131565 33.1869531,12.6549534 33.1245313,20.1131565 C33.0653125,27.1882346 27.329375,33.1250315 20,33.1250315 C16.7869531,33.1250315 13.7502344,31.9783128 11.3570313,29.878469 C10.9864844,29.5533909 10.426875,29.5731565 10.0782812,29.9216721 L6.9796875,33.0202659 C6.5990625,33.4008909 6.61789063,34.0214378 7.01734375,34.382219 C10.4529688,37.4854221 15.0057813,39.3750315 20,39.3750315 C30.7004687,39.3750315 39.375,30.7005784 39.375,20.0001878 C39.375,9.31198463 30.6526562,0.605890876 19.9644531,0.625 Z" id="path-1"></path>
    </defs>
    <g id="restart-white" stroke="none" stroke-width="1" fill="none" fill-rule="evenodd">
        <g id="Solid/undo-alt" transform="translate(0.000000, -0.500000)">
            <mask id="mask-2" fill="white">
                <use xlink:href="#path-1"></use>
            </mask>
            <use id="Mask" fill="#000000" fill-rule="nonzero" xlink:href="#path-1"></use>
            <g id="Group" mask="url(#mask-2)" fill="#FFFFFF">
                <g id="Color">
                    <rect id="White" x="0" y="0" width="40" height="40"></rect>
                </g>
            </g>
        </g>
    </g>
</svg>