<?xml version="1.0" encoding="UTF-8"?>
<svg width="38px" height="40px" viewBox="0 0 38 40" version="1.1" xmlns="http://www.w3.org/2000/svg" xmlns:xlink="http://www.w3.org/1999/xlink">
    <title>settings-white</title>
    <defs>
        <path d="M34.7809532,22.7422358 L38.1103282,24.6640327 C38.4905626,24.8834858 38.667047,25.3373139 38.5368126,25.7566108 C37.6719688,28.541142 36.1954063,31.056767 34.2642345,33.146142 C33.9665712,33.4683686 33.4854353,33.5414862 33.1054845,33.3222358 L29.7786095,31.4007514 C28.3788489,32.6000925 26.7695838,33.530547 25.0318126,34.1452827 L25.0318126,37.9876264 C25.031819,38.4265734 24.7275029,38.8068631 24.2992345,38.9030952 C21.568297,39.5163764 18.6352501,39.5480952 15.7665001,38.903642 C15.3375938,38.8073139 15.0318907,38.427392 15.0318907,37.9877827 L15.0318907,34.1452827 C13.2941029,33.530583 11.6848315,32.6001248 10.2850938,31.4007514 L6.95821884,33.3222358 C6.578268,33.5414862 6.09713212,33.4683686 5.79946884,33.146142 C3.86837509,31.056767 2.39173447,28.541142 1.52689072,25.7566108 C1.39665634,25.337392 1.57314072,24.8835639 1.95337509,24.6640327 L5.28282822,22.7422358 C4.94841561,20.9294303 4.94841561,19.0707444 5.28282822,17.2579389 L1.95345322,15.336142 C1.57321884,15.1166889 1.39673447,14.6628608 1.52696884,14.2435639 C2.39181259,11.4590327 3.86837509,8.94340765 5.79954697,6.85403265 C6.09721025,6.53180608 6.57834612,6.45868847 6.95829697,6.6779389 L10.285172,8.59942328 C11.6849325,7.40008217 13.2941977,6.46962767 15.0319688,5.85489203 L15.0319688,2.01247015 C15.0319624,1.57352313 15.3362785,1.1932335 15.764547,1.0970014 C18.4954845,0.483720153 21.4285313,0.452001403 24.2972813,1.09645453 C24.7261876,1.19278265 25.0318907,1.57270453 25.0318907,2.0123139 L25.0318907,5.8548139 C26.7696785,6.46951357 28.37895,7.39997172 29.7786876,8.59934515 L33.1055626,6.67786078 C33.4855134,6.45861035 33.9666493,6.53172795 34.2643126,6.85395453 C36.1954063,8.94332953 37.672047,11.4589545 38.5368907,14.2434858 C38.6671251,14.6627045 38.4906407,15.1165327 38.1104063,15.3360639 L34.7809532,17.2578608 C35.1153666,19.0706925 35.1153666,20.9294041 34.7809532,22.7422358 Z M26.2818907,20.0000483 C26.2818907,16.5537983 23.4781407,13.7500483 20.0318907,13.7500483 C16.5856407,13.7500483 13.7818907,16.5537983 13.7818907,20.0000483 C13.7818907,23.4462983 16.5856407,26.2500483 20.0318907,26.2500483 C23.4781407,26.2500483 26.2818907,23.4462983 26.2818907,20.0000483 Z" id="path-1"></path>
    </defs>
    <g id="settings-white" stroke="none" stroke-width="1" fill="none" fill-rule="evenodd">
        <g id="Solid/cog" transform="translate(-1.000000, 0.000000)">
            <mask id="mask-2" fill="white">
                <use xlink:href="#path-1"></use>
            </mask>
            <use id="Mask" fill="#000000" fill-rule="nonzero" xlink:href="#path-1"></use>
            <g id="Group" mask="url(#mask-2)" fill="#FFFFFF">
                <g id="Color">
                    <rect id="White" x="0" y="0" width="40" height="40"></rect>
                </g>
            </g>
        </g>
    </g>
</svg>