<?xml version="1.0" encoding="UTF-8"?>
<svg width="40px" height="40px" viewBox="0 0 40 40" version="1.1" xmlns="http://www.w3.org/2000/svg" xmlns:xlink="http://www.w3.org/1999/xlink">
    <title>upload-white</title>
    <defs>
        <path d="M23.125,30 L16.875,30 C15.8359375,30 15,29.1640625 15,28.125 L15,15 L8.1484375,15 C6.7578125,15 6.0625,13.3203125 7.046875,12.3359375 L18.9296875,0.4453125 C19.515625,-0.140625 20.4765625,-0.140625 21.0625,0.4453125 L32.953125,12.3359375 C33.9375,13.3203125 33.2421875,15 31.8515625,15 L25,15 L25,28.125 C25,29.1640625 24.1640625,30 23.125,30 Z M40,29.375 L40,38.125 C40,39.1640625 39.1640625,40 38.125,40 L1.875,40 C0.8359375,40 0,39.1640625 0,38.125 L0,29.375 C0,28.3359375 0.8359375,27.5 1.875,27.5 L12.5,27.5 L12.5,28.125 C12.5,30.5390625 14.4609375,32.5 16.875,32.5 L23.125,32.5 C25.5390625,32.5 27.5,30.5390625 27.5,28.125 L27.5,27.5 L38.125,27.5 C39.1640625,27.5 40,28.3359375 40,29.375 Z M30.3125,36.25 C30.3125,35.390625 29.609375,34.6875 28.75,34.6875 C27.890625,34.6875 27.1875,35.390625 27.1875,36.25 C27.1875,37.109375 27.890625,37.8125 28.75,37.8125 C29.609375,37.8125 30.3125,37.109375 30.3125,36.25 Z M35.3125,36.25 C35.3125,35.390625 34.609375,34.6875 33.75,34.6875 C32.890625,34.6875 32.1875,35.390625 32.1875,36.25 C32.1875,37.109375 32.890625,37.8125 33.75,37.8125 C34.609375,37.8125 35.3125,37.109375 35.3125,36.25 Z" id="path-1"></path>
    </defs>
    <g id="upload-white" stroke="none" stroke-width="1" fill="none" fill-rule="evenodd">
        <g id="Solid/upload">
            <mask id="mask-2" fill="white">
                <use xlink:href="#path-1"></use>
            </mask>
            <use id="Mask" fill="#000000" fill-rule="nonzero" xlink:href="#path-1"></use>
            <g id="Group" mask="url(#mask-2)" fill="#FFFFFF">
                <g id="Color">
                    <rect id="White" x="0" y="0" width="40" height="40"></rect>
                </g>
            </g>
        </g>
    </g>
</svg>