<?xml version="1.0" standalone="no"?>
<!DOCTYPE svg PUBLIC "-//W3C//DTD SVG 20010904//EN"
 "http://www.w3.org/TR/2001/REC-SVG-20010904/DTD/svg10.dtd">
<svg version="1.0" xmlns="http://www.w3.org/2000/svg"
 width="700.000000pt" height="700.000000pt" viewBox="0 0 700.000000 700.000000"
 preserveAspectRatio="xMidYMid meet">
<metadata>
Created by potrace 1.14, written by Peter Selinger 2001-2017
</metadata>
<g transform="translate(0.000000,700.000000) scale(0.100000,-0.100000)"
fill="#000000" stroke="none">
<path d="M3170 6989 c-419 -41 -853 -165 -1222 -350 -364 -182 -645 -384 -928
-668 -488 -489 -822 -1112 -954 -1776 -54 -277 -61 -348 -61 -695 0 -348 7
-419 61 -695 198 -995 833 -1864 1731 -2366 372 -209 761 -339 1218 -409 203
-31 609 -39 835 -15 684 70 1310 327 1848 758 152 122 385 352 505 498 456
559 728 1227 788 1937 15 177 6 582 -15 737 -85 605 -299 1141 -643 1612 -522
715 -1286 1206 -2143 1377 -235 47 -350 58 -645 61 -154 2 -323 -1 -375 -6z
m-1503 -1621 c23 -13 447 -396 943 -853 l902 -830 -42 -7 c-23 -4 -56 -17 -75
-28 -42 -26 -79 -98 -73 -145 3 -23 0 -32 -7 -27 -7 4 -422 384 -923 845 -726
669 -913 846 -923 874 -23 71 8 143 76 174 53 24 74 24 122 -3z m1984 -3400
c8 -1626 12 -1523 -55 -1571 -43 -30 -119 -30 -162 0 -66 47 -62 -59 -70 1546
l-7 1458 48 -26 c26 -14 62 -25 78 -25 44 0 114 37 134 71 9 15 19 26 22 23 3
-2 8 -667 12 -1476z"/>
</g>
</svg>
